<svg width="533" height="137" viewBox="0 0 533 137" fill="none" xmlns="http://www.w3.org/2000/svg">
<g clip-path="url(#clip0_276_189)">
<path d="M299.421 74.0239L298.84 58.9174H299.421C303.316 71.0629 310.32 76.9848 318.894 76.9848C326.778 76.9848 334.175 71.5564 334.175 62.084C334.175 52.6116 327.17 49.0612 318.786 44.8116L313.917 42.3442C307.007 38.8897 300.286 34.3523 300.286 23.7832C300.286 12.5288 308.468 4.13934 320.057 4.13934C325.412 4.13934 332.619 5.92141 337.298 8.38889V20.1368H336.717C332.917 9.86938 326.886 5.52387 319.678 5.52387C311.497 5.52387 306.047 11.1442 306.047 19.4377C306.047 27.7312 312.471 31.2816 318.218 34.2426L323.086 36.7101C331.659 41.0556 339.935 45.689 339.935 57.5329C339.935 69.3768 330.983 78.3557 317.731 78.3557C312.078 78.3557 303.911 76.5736 299.421 74.0102V74.0239Z" fill="black"/>
<path d="M422.208 66.9237C422.208 73.2432 422.506 76.6017 426.495 76.6017V77.1912H410.037V76.6017C414.027 76.6017 414.324 73.2432 414.324 66.9237V41.8514C414.324 34.353 411.985 29.7059 405.169 29.7059C400.883 29.7059 396.407 31.7758 392.701 35.2303C392.999 36.6148 393.093 38.0953 393.093 39.6718V66.91C393.093 73.2295 393.391 76.588 397.38 76.588V77.1775H380.923V76.588C384.912 76.588 385.21 73.2295 385.21 66.91V41.8377C385.21 34.3393 382.87 29.6922 376.149 29.6922C371.863 29.6922 367.576 31.7621 363.979 35.0247V66.91C363.979 73.2295 364.276 76.588 368.266 76.588V77.1775H351.808V76.588C355.798 76.588 356.095 73.2295 356.095 66.91V38.2872C356.095 31.9678 354.445 29.8978 351.132 29.0068V28.4173L363.6 24.4694H363.992V33.9417C368.671 28.6092 374.31 24.2637 380.747 24.2637C387.184 24.2637 391.16 27.8142 392.62 34.3256C397.299 28.8012 403.33 24.2637 409.862 24.2637C417.461 24.2637 422.235 29.6922 422.235 39.6581V66.8963L422.208 66.9237Z" fill="black"/>
<path d="M478.869 71.7623C477.314 74.7233 474.095 78.3697 469.714 78.3697C464.846 78.3697 463.777 73.5307 463.574 69.9803C459.585 75.0112 453.743 78.3697 448.186 78.3697C441.559 78.3697 436.894 74.1202 436.894 68.0063C436.894 60.9054 442.249 56.0664 454.027 52.612L463.277 49.9526V42.3582C463.277 39.4932 463.277 28.7322 453.446 28.7322C446.928 28.7322 442.154 33.3656 439.139 39.2876L438.557 38.986C440.112 33.5575 445.765 24.2771 457.056 24.2771C466.495 24.2771 471.08 30.8844 471.08 40.1649V66.2242C471.08 70.2682 471.269 73.6267 474.298 73.6267C476.34 73.6267 477.706 72.1462 478.287 71.3511L478.869 71.7486V71.7623ZM463.29 68.9933V51.4193L456.38 53.6949C447.428 56.6559 444.791 59.7128 444.791 65.4429C444.791 70.6794 448.104 73.9282 452.675 73.9282C456.57 73.9282 460.654 71.3648 463.29 68.9933Z" fill="black"/>
<path d="M500.099 66.9235C500.099 73.243 500.396 76.6015 504.386 76.6015V77.191H487.929V76.6015C491.918 76.6015 492.215 73.243 492.215 66.9235V13.0228C492.215 6.70329 490.565 4.63335 487.252 3.74231V3.15286L499.72 -3.05176e-05H500.113V66.9235H500.099ZM509.538 45.0041C522.29 65.6349 529.308 75.8064 533 76.5878V77.1773C530.079 77.5748 527.942 77.5748 526.279 77.5748C519.856 77.5748 516.543 72.2423 502.912 49.5415L512.743 39.37C516.827 35.2301 519.274 32.2691 519.274 29.596C519.274 27.3205 517.327 26.2375 515.285 26.0456V25.4561H531.837V26.0456C528.727 26.635 522.195 32.1595 513.919 40.4529L509.538 44.9904V45.0041Z" fill="black"/>
<path d="M70.6031 64.9495C70.9952 72.256 71.3874 76.6015 77.8107 76.6015V77.191H55.5117V76.6015C62.1378 76.6015 62.5165 72.256 62.1378 64.9495L59.3116 12.2414L36.3364 77.191H35.5521L12.4687 12.4333L9.93994 60.2065C9.45312 69.6789 11.5897 76.5878 18.2159 76.5878V77.1773H0.000701904V76.5878C6.2347 76.0943 7.69516 69.5829 8.18198 60.2065L10.4268 16.7788C10.8189 9.0748 7.50584 6.71699 2.63764 5.92191V5.33246H19.0949L39.5413 62.8796L59.8795 5.33246H74.8763V5.92191C68.2501 6.51137 67.574 9.96584 67.9661 17.8618L70.5896 64.9495H70.6031Z" fill="black"/>
<path d="M128.818 71.7623C127.263 74.7233 124.045 78.3697 119.663 78.3697C114.795 78.3697 113.727 73.5307 113.524 69.9803C109.535 75.0112 103.693 78.3697 98.1351 78.3697C91.509 78.3697 86.8436 74.1201 86.8436 68.0063C86.8436 60.9054 92.1986 56.0664 103.977 52.6119L113.227 49.9525V42.3582C113.227 39.4932 113.227 28.7322 103.395 28.7322C96.8775 28.7322 92.104 33.3656 89.0884 39.2875L88.5069 38.986C90.062 33.5575 95.7146 24.277 107.006 24.277C116.445 24.277 121.029 30.8844 121.029 40.1649V66.2242C121.029 70.2681 121.219 73.6266 124.248 73.6266C126.29 73.6266 127.655 72.1461 128.237 71.3511L128.818 71.7486V71.7623ZM113.24 68.9933V51.4193L106.33 53.6949C97.3779 56.6559 94.7409 59.7128 94.7409 65.4428C94.7409 70.6794 98.054 73.9282 102.625 73.9282C106.519 73.9282 110.603 71.3648 113.24 68.9933Z" fill="black"/>
<path d="M167.277 25.0721L165.33 33.5575H164.749C162.612 32.077 160.07 31.186 158.028 31.186C155.404 31.186 152.862 32.6665 150.239 36.4225V66.9233C150.239 73.2428 150.536 76.6013 154.525 76.6013V77.1908H138.068V76.6013C142.057 76.6013 142.355 73.2428 142.355 66.9233V38.3006C142.355 31.9811 140.705 29.9111 137.392 29.0201V28.4306L149.86 24.4827H150.252V35.038C154.241 28.8145 158.528 24.277 163.491 24.277C164.654 24.277 165.925 24.469 167.291 25.0721H167.277Z" fill="black"/>
<path d="M177.298 77.1911V76.6017C181.287 76.6017 181.585 73.2432 181.585 66.9237V38.3009C181.585 31.9814 179.935 29.9115 176.622 29.0204V28.431L189.09 24.483H189.482V66.9237C189.482 73.2432 189.779 76.6017 193.769 76.6017V77.1911H177.311H177.298ZM178.948 10.5692C178.948 7.51222 181.382 5.04474 184.492 5.04474C187.602 5.04474 189.942 7.51222 189.942 10.5692C189.942 13.6261 187.508 16.0936 184.492 16.0936C181.476 16.0936 178.948 13.6261 178.948 10.5692Z" fill="black"/>
<path d="M199.11 99.0965C206.994 96.9306 209.536 90.6111 209.536 80.6315V38.2868C209.536 31.9673 207.887 29.8974 204.573 29.0063V28.4169L217.041 24.4689H217.434V78.4656C217.434 90.4055 209.645 98.0135 199.232 99.6859L199.137 99.0965H199.11ZM206.899 10.5551C206.899 7.49812 209.333 5.03064 212.349 5.03064C215.365 5.03064 217.799 7.49812 217.799 10.5551C217.799 13.612 215.365 16.0795 212.349 16.0795C209.333 16.0795 206.899 13.612 206.899 10.5551Z" fill="black"/>
<path d="M273.106 65.4428C269.699 71.3648 263.762 78.3697 253.444 78.3697C240.489 78.3697 232.606 66.8274 232.606 52.1184C232.606 35.8331 243.018 24.277 255.581 24.277C265.804 24.277 273.593 31.5835 273.012 44.0169H241.165C240.976 45.4974 240.868 46.9779 240.868 48.4583C240.868 62.4681 246.318 73.5307 257.231 73.5307C263.951 73.5307 269.401 69.5827 272.525 65.0453L273.106 65.4428ZM241.368 42.4404H264.641C265.425 32.2689 262.504 25.6616 255.094 25.6616C247.683 25.6616 242.829 33.2559 241.368 42.4404Z" fill="black"/>
<path d="M92.6584 109.104C98.6084 109.104 101.922 112.27 101.922 116.712C101.922 122.058 98.7572 125.225 93.2534 125.225C91.6577 125.225 90.2378 124.814 89.467 124.512V131.64C89.467 134.423 89.7645 136.315 92.2933 136.315V136.548H82.6245V136.315C85.1533 136.315 85.302 134.423 85.302 131.64V113.998C85.302 111.215 85.1533 109.323 82.6245 109.323V109.09H92.6584V109.104ZM97.6077 116.945C97.6077 113.175 95.9715 109.707 91.9552 109.707H90.8734C89.9809 109.707 89.467 110.159 89.467 111.064V122.593C89.467 123.799 90.2108 124.334 92.2122 124.334C95.1872 124.334 97.6077 121.77 97.6077 116.945Z" fill="#665E4D"/>
<path d="M137.73 109.337C135.202 109.337 135.053 111.229 135.053 114.012V131.654C135.053 134.437 135.202 136.329 137.73 136.329V136.562H128.21V136.329C130.739 136.329 130.888 134.437 130.888 131.654V122.689H120.475V131.654C120.475 134.437 120.624 136.329 123.153 136.329V136.562H113.633V136.329C116.161 136.329 116.31 134.437 116.31 131.654V114.012C116.31 111.229 116.161 109.337 113.633 109.337V109.104H123.153V109.337C120.624 109.337 120.475 111.229 120.475 114.012V122.004H130.888V114.012C130.888 111.229 130.739 109.337 128.21 109.337V109.104H137.73V109.337Z" fill="#665E4D"/>
<path d="M149.981 122.909C149.981 114.465 154.89 108.666 162.246 108.666C169.603 108.666 174.444 114.163 174.444 122.758C174.444 131.353 169.535 137.001 162.179 137.001C154.822 137.001 149.981 131.504 149.981 122.909ZM169.833 122.827C169.833 115.219 167.236 109.187 162.179 109.187C157.121 109.187 154.593 114.986 154.593 122.827C154.593 130.668 157.189 136.466 162.246 136.466C167.304 136.466 169.833 130.668 169.833 122.827Z" fill="#665E4D"/>
<path d="M206.872 115.067H206.642C204.6 110.653 203.302 109.721 199.732 109.721H198.583V131.654C198.583 134.437 198.731 136.328 201.26 136.328V136.562H191.74V136.328C194.269 136.328 194.418 134.437 194.418 131.654V109.721H193.268C189.739 109.721 188.4 110.667 186.358 115.067H186.128L186.642 109.118H206.345L206.858 115.067H206.872Z" fill="#665E4D"/>
<path d="M218.488 122.909C218.488 114.465 223.397 108.666 230.753 108.666C238.11 108.666 242.951 114.163 242.951 122.758C242.951 131.353 238.042 137.001 230.686 137.001C223.329 137.001 218.488 131.504 218.488 122.909ZM238.339 122.827C238.339 115.219 235.743 109.187 230.686 109.187C225.628 109.187 223.099 114.986 223.099 122.827C223.099 130.668 225.696 136.466 230.753 136.466C235.811 136.466 238.339 130.668 238.339 122.827Z" fill="#665E4D"/>
<path d="M256.162 122.909C256.162 114.465 261.585 108.666 268.914 108.666C272.971 108.666 275.716 109.639 277.501 110.544V115.671H277.271C275.27 111.449 272.89 109.187 268.833 109.187C263.884 109.187 260.76 114.986 260.76 122.868C260.76 130.75 263.546 136.48 268.86 136.48C271.795 136.48 273.81 135.123 273.81 132.943V128.762C273.81 125.98 273.661 124.499 271.511 124.348V124.115H279.165V124.348C278.042 124.499 277.975 125.966 277.975 128.762V134.3C275.892 135.726 272.579 137.015 268.711 137.015C260.976 137.015 256.149 131.285 256.149 122.923L256.162 122.909Z" fill="#665E4D"/>
<path d="M313.62 136.329V136.562C313.025 136.644 311.159 136.713 310.05 136.713C307.373 136.713 306.71 135.506 302.099 125.253C301.464 123.895 300.841 123.594 299.651 123.594H298.123V131.654C298.123 134.437 298.272 136.329 300.801 136.329V136.562H291.281V136.329C293.81 136.329 293.958 134.437 293.958 131.654V114.012C293.958 111.229 293.81 109.337 291.281 109.337V109.104H301.315C307.265 109.104 310.537 111.901 310.537 116.26C310.537 119.947 307.819 122.292 304.479 123.196V123.279C305.561 123.923 306.494 125.431 307.373 127.158C311.092 134.396 311.835 135.712 313.62 136.315V136.329ZM298.11 122.991H300.639C304.317 122.991 306.21 120.688 306.21 116.589C306.21 112.49 304.466 109.735 300.666 109.735H299.516C298.624 109.735 298.11 110.187 298.11 111.092V123.004V122.991Z" fill="#665E4D"/>
<path d="M343.519 131.722C344.601 134.807 345.345 136.164 346.9 136.315V136.548H337.38V136.315C339.462 136.164 340.166 134.738 339.462 132.737L337.529 127.199H329.239L328.495 129.269C326.927 133.71 327.197 136.013 329.726 136.315V136.548H323.479V136.315C325.264 136.082 326.197 133.559 327.792 129.036L335.04 108.638H335.338L343.519 131.709V131.722ZM329.537 126.294H337.231L333.404 115.286L329.537 126.294Z" fill="#665E4D"/>
<path d="M368.253 109.104C374.203 109.104 377.516 112.27 377.516 116.712C377.516 122.058 374.351 125.225 368.848 125.225C367.252 125.225 365.832 124.814 365.061 124.512V131.64C365.061 134.423 365.359 136.315 367.887 136.315V136.548H358.219V136.315C360.747 136.315 360.896 134.423 360.896 131.64V113.998C360.896 111.215 360.747 109.323 358.219 109.323V109.09H368.253V109.104ZM373.202 116.945C373.202 113.175 371.566 109.707 367.549 109.707H366.468C365.575 109.707 365.061 110.159 365.061 111.064V122.593C365.061 123.799 365.805 124.334 367.806 124.334C370.781 124.334 373.202 121.77 373.202 116.945Z" fill="#665E4D"/>
<path d="M413.324 109.337C410.795 109.337 410.646 111.229 410.646 114.012V131.654C410.646 134.437 410.795 136.329 413.324 136.329V136.562H403.804V136.329C406.333 136.329 406.481 134.437 406.481 131.654V122.689H396.069V131.654C396.069 134.437 396.218 136.329 398.746 136.329V136.562H389.226V136.329C391.755 136.329 391.904 134.437 391.904 131.654V114.012C391.904 111.229 391.755 109.337 389.226 109.337V109.104H398.746V109.337C396.218 109.337 396.069 111.229 396.069 114.012V122.004H406.481V114.012C406.481 111.229 406.333 109.337 403.804 109.337V109.104H413.324V109.337Z" fill="#665E4D"/>
<path d="M441.262 109.104H447.509V109.337C445.576 109.57 443.899 112.394 441.857 116.616L438.138 124.348V131.654C438.138 134.437 438.287 136.329 440.816 136.329V136.562H431.296V136.329C433.824 136.329 433.973 134.437 433.973 131.654V125.129L428.578 113.93C427.049 110.763 426.306 109.488 425.197 109.337V109.104H434.717V109.337C432.634 109.488 431.782 110.886 432.743 112.915L437.76 123.539L441.181 116.383C443.115 112.353 443.777 109.639 441.262 109.337V109.104Z" fill="#665E4D"/>
</g>
<defs>
<clipPath id="clip0_276_189">
<rect width="533" height="137" fill="white"/>
</clipPath>
</defs>
</svg>
