<svg width="24" height="24" viewBox="0 0 24 24" fill="none" xmlns="http://www.w3.org/2000/svg">
<path fill-rule="evenodd" clip-rule="evenodd" d="M4.73218 3.54311C5.94918 2.33311 7.95318 2.54811 8.97218 3.91011L10.2342 5.59411C11.0642 6.70211 10.9902 8.25011 10.0052 9.22911L9.76718 9.46711C9.74031 9.56704 9.73757 9.67192 9.75918 9.77311C9.82218 10.1811 10.1632 11.0451 11.5912 12.4651C13.0192 13.8851 13.8892 14.2251 14.3032 14.2891C14.4074 14.3113 14.5154 14.3082 14.6182 14.2801L15.0262 13.8741C15.9022 13.0041 17.2462 12.8411 18.3302 13.4301L20.2402 14.4701C21.8772 15.3581 22.2902 17.5821 20.9502 18.9151L19.5292 20.3271C19.0812 20.7721 18.4792 21.1431 17.7452 21.2121C15.9352 21.3811 11.7182 21.1651 7.28518 16.7581C3.14818 12.6441 2.35418 9.05611 2.25318 7.28811C2.20318 6.39411 2.62518 5.63811 3.16318 5.10411L4.73218 3.54311ZM7.77218 4.80911C7.26518 4.13211 6.32118 4.07811 5.78918 4.60711L4.21918 6.16711C3.88918 6.49511 3.73118 6.85711 3.75118 7.20311C3.83118 8.60811 4.47118 11.8451 8.34318 15.6951C12.4052 19.7331 16.1562 19.8541 17.6062 19.7181C17.9022 19.6911 18.1962 19.5371 18.4712 19.2641L19.8912 17.8511C20.4692 17.2771 20.3422 16.2311 19.5242 15.7871L17.6142 14.7481C17.0862 14.4621 16.4682 14.5561 16.0842 14.9381L15.6292 15.3911L15.0992 14.8591C15.6292 15.3911 15.6282 15.3921 15.6272 15.3921L15.6262 15.3941L15.6232 15.3971L15.6162 15.4031L15.6012 15.4171C15.5587 15.4559 15.5132 15.4914 15.4652 15.5231C15.3852 15.5761 15.2792 15.6351 15.1462 15.6841C14.8762 15.7851 14.5182 15.8391 14.0762 15.7711C13.2092 15.6381 12.0602 15.0471 10.5332 13.5291C9.00718 12.0111 8.41118 10.8691 8.27718 10.0031C8.20818 9.56111 8.26318 9.20311 8.36518 8.93311C8.42175 8.78138 8.50208 8.63961 8.60318 8.51311L8.63518 8.47811L8.64918 8.46311L8.65518 8.45711L8.65818 8.45411L8.66018 8.45211L8.94818 8.16611C9.37618 7.73911 9.43618 7.03211 9.03318 6.49311L7.77218 4.80911Z" fill="black"/>
</svg>
